<svg xmlns="http://www.w3.org/2000/svg" id="Camada_2" viewBox="0 0 136 137"><defs><filter id="drop-shadow-1" filterUnits="userSpaceOnUse"><feGaussianBlur stdDeviation="10"/></filter><style>.cls-2{fill:#0074ff}</style></defs><g id="Camada_4"><circle cx="68" cy="68.64" r="37.99" style="fill:#fff;filter:url(#drop-shadow-1)"/><path d="M80.86 106.52c-2.2.75-4.47 1.3-6.74 1.66l-.31-1.99c2.16-.34 4.32-.87 6.41-1.58a37.958 37.958 0 0 0 16.36-10.93l1.52 1.33a39.983 39.983 0 0 1-17.23 11.51ZM105.29 83.13l-1.88-.73c3.23-8.3 3.43-17.52.56-25.97l-.03-.08 1.91-.65.03.08c3.02 8.9 2.81 18.61-.59 27.35ZM97.58 44.8a38.087 38.087 0 0 0-22.24-13.43l.39-1.98c9.22 1.83 17.54 6.85 23.42 14.15l-1.57 1.27ZM60.23 107.89a40.198 40.198 0 0 1-23.41-14.17l1.57-1.26a38.177 38.177 0 0 0 22.23 13.46l-.39 1.98ZM32.05 80.89l-1.91.65v-.03a40.02 40.02 0 0 1 .56-27.32l1.88.73a38.068 38.068 0 0 0-.55 25.93v.04ZM39.4 43.63l-1.52-1.33a39.956 39.956 0 0 1 17.26-11.55c2.19-.74 4.44-1.3 6.7-1.65l.31 1.99c-2.15.34-4.29.87-6.36 1.57A37.94 37.94 0 0 0 39.4 43.62Z" class="cls-2"/><path id="Caminho_96" d="M65.86 70.78h8.79v-8.79h-8.79v8.79Zm1.76-7.03h1.76v1.76h1.76v-1.76h1.76v5.27h-5.27v-5.27Z"/><path id="Caminho_97" d="M79.27 57.37c-4.98-4.98-13.05-4.97-18.03.01a12.752 12.752 0 0 0-1.91 15.57l-5.43 5.43c-1.2 1.2-1.2 3.15 0 4.35 1.2 1.2 3.15 1.2 4.35 0l5.43-5.43c6.03 3.63 13.86 1.68 17.49-4.35a12.737 12.737 0 0 0-1.91-15.58ZM57.01 81.49c-.51.51-1.35.51-1.86 0s-.51-1.35 0-1.86l2.68-2.68 1.86 1.86-2.68 2.68Zm3.92-3.93-1.86-1.86 1.29-1.29c.56.68 1.18 1.31 1.86 1.86l-1.29 1.29Zm9.32-.2c-6.07 0-10.99-4.92-10.99-10.98s4.92-10.99 10.98-10.99 10.99 4.92 10.99 10.98c0 6.07-4.92 10.98-10.98 10.99Z"/><path id="Caminho_98" d="M70.26 57.16c-5.1 0-9.23 4.13-9.23 9.23 0 5.1 4.13 9.23 9.23 9.23 5.1 0 9.23-4.13 9.23-9.23 0-5.09-4.13-9.22-9.23-9.23Zm0 16.7c-4.13 0-7.47-3.34-7.47-7.47s3.34-7.47 7.47-7.47 7.47 3.34 7.47 7.47a7.47 7.47 0 0 1-7.47 7.47Z"/></g></svg>