<svg xmlns="http://www.w3.org/2000/svg" id="Camada_2" viewBox="0 0 137 137"><defs><filter id="drop-shadow-1" filterUnits="userSpaceOnUse"><feGaussianBlur stdDeviation="10"/></filter><style>.cls-2{fill:#0074ff}</style></defs><g id="Camada_4"><circle cx="68.62" cy="68.65" r="37.99" style="fill:#fff;filter:url(#drop-shadow-1)"/><path d="M81.48 106.53c-2.2.75-4.47 1.3-6.74 1.66l-.31-1.99c2.16-.34 4.32-.87 6.41-1.58A37.958 37.958 0 0 0 97.2 93.69l1.52 1.33a39.983 39.983 0 0 1-17.23 11.51ZM105.91 83.14l-1.88-.73c3.23-8.3 3.43-17.52.56-25.97l-.03-.08 1.91-.65.03.08c3.02 8.9 2.81 18.61-.59 27.35ZM98.21 44.81a38.087 38.087 0 0 0-22.24-13.43l.39-1.98c9.22 1.83 17.54 6.85 23.42 14.15l-1.57 1.27ZM60.85 107.9a40.198 40.198 0 0 1-23.41-14.17l1.57-1.26a38.177 38.177 0 0 0 22.23 13.46l-.39 1.98ZM32.67 80.9l-1.91.65v-.03a40.02 40.02 0 0 1 .56-27.32l1.88.73a38.068 38.068 0 0 0-.55 25.93v.04ZM40.02 43.64l-1.52-1.33a39.956 39.956 0 0 1 17.26-11.55c2.19-.74 4.44-1.3 6.7-1.65l.31 1.99c-2.15.34-4.29.87-6.36 1.57a37.94 37.94 0 0 0-16.39 10.96Z" class="cls-2"/><path id="Retângulo_48" d="M57.19 78.38h2.35v1.76h-2.35z"/><path id="Retângulo_49" d="M61.29 78.38h2.35v1.76h-2.35z"/><path id="Retângulo_50" d="M65.4 78.38h2.35v1.76H65.4z"/><path id="Retângulo_51" d="M69.5 78.38h2.35v1.76H69.5z"/><path id="Retângulo_52" d="M73.61 78.38h2.35v1.76h-2.35z"/><path id="Retângulo_53" d="M77.71 78.38h2.35v1.76h-2.35z"/><path id="Caminho_154" d="M68.62 66.23c3.47 0 6.29-2.82 6.29-6.29s-2.82-6.29-6.29-6.29-6.29 2.82-6.29 6.29 2.82 6.29 6.29 6.29Zm0-10.82c2.5 0 4.53 2.03 4.53 4.53s-2.03 4.53-4.53 4.53-4.53-2.03-4.53-4.53c0-2.5 2.03-4.53 4.53-4.53Z"/><path id="Caminho_155" d="m71.11 61.19-1.61-1.61v-2.27h-1.76v3l2.12 2.12 1.24-1.24Z"/><path id="Caminho_156" d="M74.83 67.99v6.87h-1.81v-6.87h-8.79v6.87h-1.81v-6.87h-8.79v15.66h30V67.99h-8.79Zm1.76 1.76h1.76v1.76h1.76v-1.76h1.76v5.11h-5.28v-5.11Zm-10.6 0h1.76v1.76h1.76v-1.76h1.76v5.11h-5.28v-5.11Zm-8.84 0v1.76h1.76v-1.76h1.76v5.11h-5.28v-5.11h1.76ZM55.39 81.9v-5.28h26.48v5.28H55.39Z"/></g></svg>