<svg xmlns="http://www.w3.org/2000/svg" id="Camada_2" viewBox="0 0 137 137"><defs><filter id="drop-shadow-1" filterUnits="userSpaceOnUse"><feGaussianBlur stdDeviation="10"/></filter><style>.cls-2{fill:#0074ff}</style></defs><g id="Camada_4"><circle cx="68.8" cy="68.15" r="37.99" style="fill:#fff;filter:url(#drop-shadow-1)"/><path d="M81.66 106.03c-2.2.75-4.47 1.3-6.74 1.66l-.31-1.99c2.16-.34 4.32-.87 6.41-1.58a37.958 37.958 0 0 0 16.36-10.93l1.52 1.33a39.983 39.983 0 0 1-17.23 11.51ZM106.09 82.64l-1.88-.73c3.23-8.3 3.43-17.52.56-25.97l-.03-.08 1.91-.65.03.08c3.02 8.9 2.81 18.61-.59 27.35ZM98.39 44.31a38.087 38.087 0 0 0-22.24-13.43l.39-1.98c9.22 1.83 17.54 6.85 23.42 14.15l-1.57 1.27ZM61.03 107.4a40.198 40.198 0 0 1-23.41-14.17l1.57-1.26a38.177 38.177 0 0 0 22.23 13.46l-.39 1.98ZM32.85 80.4l-1.91.65v-.03a40.02 40.02 0 0 1 .56-27.32l1.88.73a38.068 38.068 0 0 0-.55 25.93v.04ZM40.2 43.14l-1.52-1.33a39.956 39.956 0 0 1 17.26-11.55c2.19-.74 4.44-1.3 6.7-1.65l.31 1.99c-2.15.34-4.29.87-6.36 1.57A37.94 37.94 0 0 0 40.2 43.13Z" class="cls-2"/><path id="Caminho_116" d="M83.8 71.51V64.8l-2.32-.46c-.26-.85-.59-1.67-1.01-2.44l1.31-1.97-4.75-4.75-1.97 1.31c-.78-.42-1.6-.76-2.44-1.01l-.46-2.32h-6.71l-.46 2.32c-.85.26-1.67.59-2.44 1.01l-1.97-1.31-4.75 4.75 1.31 1.97c-.42.78-.76 1.6-1.01 2.44l-2.32.46v6.71l2.32.46c.25.85.59 1.67 1.01 2.44l-1.31 1.97 4.75 4.75 1.97-1.31c.78.42 1.6.76 2.44 1.01l.46 2.32h6.71l.46-2.32c.85-.25 1.67-.59 2.44-1.01l1.97 1.31 4.75-4.75-1.31-1.97c.42-.78.76-1.6 1.01-2.44l2.32-.46Zm-3.73-1.05-.14.54c-.27 1.06-.69 2.07-1.25 3.01l-.28.48 1.12 1.68-2.71 2.71-1.68-1.12-.48.28c-.94.56-1.95.98-3.01 1.25l-.54.14-.4 1.98h-3.83l-.4-1.98-.54-.14c-1.06-.27-2.07-.69-3.01-1.25l-.48-.28-1.68 1.12-2.71-2.71 1.12-1.68-.28-.48c-.56-.94-.98-1.95-1.25-3.01l-.14-.54-1.98-.4v-3.83l1.98-.4.14-.54c.27-1.06.69-2.07 1.25-3.01l.28-.48-1.12-1.68 2.71-2.71 1.68 1.12.48-.28c.94-.56 1.95-.98 3.01-1.25l.54-.14.4-1.98h3.83l.4 1.98.54.14c1.06.27 2.07.69 3.01 1.25l.48.28 1.68-1.12 2.71 2.71-1.12 1.68.28.48c.56.94.98 1.95 1.25 3.01l.14.54 1.98.4v3.83l-1.98.4Z"/><path id="Caminho_117" d="M68.8 58.48c-5.34 0-9.67 4.33-9.67 9.67s4.33 9.67 9.67 9.67 9.67-4.33 9.67-9.67-4.33-9.66-9.67-9.67Zm0 17.58c-4.37 0-7.91-3.54-7.91-7.91s3.54-7.91 7.91-7.91 7.91 3.54 7.91 7.91-3.54 7.91-7.91 7.91Z"/></g></svg>