<svg xmlns="http://www.w3.org/2000/svg" id="Camada_2" viewBox="0 0 137 137"><defs><filter id="drop-shadow-1" filterUnits="userSpaceOnUse"><feGaussianBlur stdDeviation="10"/></filter><style>.cls-2{fill:#0074ff}</style></defs><g id="Camada_4"><circle cx="68.5" cy="68.63" r="37.99" style="fill:#fff;filter:url(#drop-shadow-1)"/><path d="M81.36 106.51c-2.2.75-4.47 1.3-6.74 1.66l-.31-1.99c2.16-.34 4.32-.87 6.41-1.58a37.958 37.958 0 0 0 16.36-10.93L98.6 95a39.983 39.983 0 0 1-17.23 11.51ZM105.79 83.12l-1.88-.73c3.23-8.3 3.43-17.52.56-25.97l-.03-.08 1.91-.65.03.08c3.02 8.9 2.81 18.61-.59 27.35ZM98.09 44.79a38.087 38.087 0 0 0-22.24-13.43l.39-1.98c9.22 1.83 17.54 6.85 23.42 14.15l-1.57 1.27ZM60.73 107.88a40.198 40.198 0 0 1-23.41-14.17l1.57-1.26a38.177 38.177 0 0 0 22.23 13.46l-.39 1.98ZM32.55 80.88l-1.91.65v-.03a40.02 40.02 0 0 1 .56-27.32l1.88.73a38.068 38.068 0 0 0-.55 25.93v.04ZM39.9 43.62l-1.52-1.33a39.956 39.956 0 0 1 17.26-11.55c2.19-.74 4.44-1.3 6.7-1.65l.31 1.99c-2.15.34-4.29.87-6.36 1.57A37.94 37.94 0 0 0 39.9 43.61Z" class="cls-2"/><path id="Caminho_142" d="M79.98 55.4v-1.76h-1.76v1.76h-1.76v-1.76H74.7v1.76h-1.76v-1.76h-1.76v1.76h-5.37v-1.76h-1.76v1.76h-1.76v-1.76h-1.76v1.76h-1.76v-1.76h-1.76v1.76h-3.52v28.24h30V55.4h-3.52Zm-22.96 1.76v1.76h1.76v-1.76h1.76v1.76h1.76v-1.76h1.76v1.76h1.76v-1.76h5.37v1.76h1.76v-1.76h1.76v1.76h1.76v-1.76h1.76v1.76h1.76v-1.76h1.76v3.52H55.27v-3.52h1.76Zm-1.76 24.72V62.43h26.48v19.45H55.26Z"/><path id="Caminho_143" d="M57.02 80.12h22.97V64.19H57.02v15.93Zm1.76-4.72h3.55v2.97h-3.55V75.4Zm14.15-1.76h-3.54v-2.97h3.54v2.97Zm1.76-2.97h3.54v2.97h-3.54v-2.97Zm-5.3 4.72h3.54v2.97h-3.54v-2.97Zm-1.76 2.97h-3.54v-2.97h3.54v2.97Zm1.76-9.45v-2.97h3.54v2.97h-3.54Zm-1.76 0h-3.54v-2.97h3.54v2.97Zm0 1.76v2.97h-3.54v-2.97h3.54Zm-5.3 2.97h-3.54v-2.97h3.55v2.97Zm12.36 4.72v-2.97h3.54v2.97h-3.54Zm3.54-9.45h-3.54v-2.97h3.54v2.97Zm-15.9-2.97v2.97h-3.55v-2.97h3.55Z"/></g></svg>