<svg xmlns="http://www.w3.org/2000/svg" xml:space="preserve" id="Camada_1" x="0" y="0" style="enable-background:new 0 0 185.8 99.3" version="1.1" viewBox="0 0 185.8 99.3"><style>.st0{fill:#fff}</style><g id="Camada_2_00000075123272337514030280000016075691759027833238_"><g id="Camada_1-2"><g id="folha-5"><path d="M4.7 4.8h11.6v56c0 8.2.8 13.7 2.4 16.5 1.7 2.9 4.4 5.2 7.6 6.4 3.6 1.5 7.6 2.2 11.5 2.2 3.7.1 7.4-.7 10.8-2.2 3.1-1.4 5.6-3.8 7-6.9 1.6-3.2 2.4-9.8 2.4-20v-52h10.6v55c0 10.1-1.2 17.3-3.6 21.4-2.4 4.2-6 7.6-10.3 9.8-4.5 2.4-10.2 3.6-17 3.6-5.9.1-11.8-.9-17.4-2.8-5.3-1.9-9.2-4.9-11.8-8.9S4.7 72 4.7 62.3V4.8z" class="st0"/><path d="M37 99.3c-6.2 0-12.4-1-18.3-3.1-6.3-2.3-11.1-5.9-14.2-10.8C1.5 80.5 0 73 0 62.3V.1h21v60.7c0 9.9 1.3 13.2 1.8 14.1 1.2 1.9 3 3.5 5.2 4.3h.1c3.1 1.3 6.3 1.9 9.6 1.8h.2c3 .1 6.1-.6 8.8-1.8 2-.9 3.7-2.5 4.6-4.6l.1-.1c.6-1.1 1.9-5.1 1.9-17.8V.1h20.1v59.7c0 11.1-1.4 18.9-4.3 23.8-2.9 5-7.1 9-12.2 11.6-5.2 2.7-11.6 4.1-19.2 4.1H37zM9.5 9.5v52.8c0 10.9 1.7 15.8 3.1 18 2 3.1 5.1 5.4 9.4 7 1.1.4 2.3.7 3.5 1.1-.3-.1-.5-.2-.8-.3-4.1-1.6-7.6-4.5-9.9-8.3-2.1-3.6-3.1-9.6-3.1-18.9V9.5H9.5zm50.4 69.3c-1.4 3-3.5 5.5-6.2 7.4 3-1.8 5.5-4.3 7.2-7.3 1.4-2.3 3-7.5 3-19V9.5h-1.2v47.2c0 14.6-1.6 19.6-2.8 22.1zM89.1 94.5H77.4L105.9 49 79.8 4.8h12.6l20 33.8 21.4-33.8h11.5L118 48l27.4 46.5H133l-21.4-36.1-22.5 36.1z" class="st0"/><path d="M91.8 99.3h-23l31.4-50.4L71.3 0H95l17.4 29.4L131.1 0h22.8l-30.3 48.1 30.2 51.2h-23.5l-18.8-31.7-19.7 31.7zm-5.7-9.6h.4l25.2-40.6 24.1 40.6h1.3l-24.6-41.8 24.1-38.3h-.2l-24.2 38.2L89.6 9.6h-1.5l23.3 39.5-25.3 40.6zM181 94.5h-15.1V79.3H181v15.2z" class="st0"/><path d="M185.8 99.3h-24.7V74.5h24.7v24.8zm-15.1-9.6h5.5V84h-5.5v5.7z" class="st0"/></g></g></g></svg>