<svg xmlns="http://www.w3.org/2000/svg" xmlns:xlink="http://www.w3.org/1999/xlink" id="Camada_2" viewBox="0 0 185 184"><defs><style>.cls-1{fill:#fff;filter:url(#drop-shadow-1);}.cls-2{fill:#0074ff;}</style><filter id="drop-shadow-1" filterUnits="userSpaceOnUse"><feGaussianBlur stdDeviation="10"></feGaussianBlur></filter></defs><g id="Camada_7"><circle class="cls-1" cx="92.53" cy="91.99" r="61.73"></circle><path class="cls-2" d="m113.43,153.55c-3.57,1.21-7.26,2.12-10.96,2.7l-.5-3.24c3.51-.55,7.01-1.41,10.41-2.56,10.29-3.49,19.48-9.63,26.59-17.76l2.47,2.16c-7.49,8.56-17.17,15.03-28,18.71Z"></path><path class="cls-2" d="m153.12,115.54l-3.05-1.19c5.25-13.49,5.57-28.47.91-42.2l-.04-.13,3.1-1.05.04.12c4.91,14.46,4.57,30.25-.96,44.45Z"></path><path class="cls-2" d="m140.61,53.25c-9.08-11.26-21.91-19.01-36.14-21.83l.64-3.22c14.99,2.97,28.5,11.13,38.06,22.99l-2.55,2.06Z"></path><path class="cls-2" d="m79.9,155.77c-14.98-2.98-28.49-11.16-38.04-23.03l2.55-2.05c9.06,11.27,21.89,19.04,36.12,21.87l-.64,3.21Z"></path><path class="cls-2" d="m34.11,111.9l-3.1,1.05-.02-.05c-4.9-14.45-4.57-30.21.93-44.39l3.06,1.19c-5.22,13.47-5.54,28.43-.89,42.13l.02.07Z"></path><path class="cls-2" d="m46.06,51.35l-2.47-2.15c7.5-8.59,17.19-15.08,28.05-18.76,3.55-1.21,7.21-2.11,10.89-2.69l.51,3.24c-3.49.55-6.97,1.41-10.34,2.55-10.31,3.5-19.52,9.66-26.63,17.81Z"></path><path id="Caminho_150" d="m116.91,106.8v-35.33h-48.75v35.33h15.72l-.95,2.86h-3.54v2.86h26.28v-2.86h-3.54l-.95-2.86h15.72Zm-2.86-32.47v21.99h-43.04v-21.99h43.04Zm-43.04,24.85h43.04v4.77h-43.04v-4.77Zm28.11,10.48h-13.19l.95-2.86h11.28l.95,2.86Z"></path><rect id="Ret&#xE2;ngulo_45" x="93.96" y="78.18" width="17.23" height="2.86"></rect><rect id="Ret&#xE2;ngulo_46" x="93.96" y="83.9" width="17.23" height="2.86"></rect><rect id="Ret&#xE2;ngulo_47" x="93.96" y="89.62" width="17.23" height="2.86"></rect><path id="Caminho_151" d="m91.1,78.18h-17.23v14.29h17.23v-14.29Zm-2.86,11.43h-11.51v-8.58h4.33v2.86h2.86v-2.86h4.33v8.58Z"></path></g></svg>