<svg xmlns="http://www.w3.org/2000/svg" xmlns:xlink="http://www.w3.org/1999/xlink" id="Camada_2" viewBox="0 0 185 185"><defs><style>.cls-1{fill:#fff;filter:url(#drop-shadow-1);}.cls-2{fill:#0074ff;}</style><filter id="drop-shadow-1" filterUnits="userSpaceOnUse"><feGaussianBlur stdDeviation="10"></feGaussianBlur></filter></defs><g id="Camada_7"><circle class="cls-1" cx="92.54" cy="92.45" r="61.73"></circle><path class="cls-2" d="m113.44,154c-3.57,1.21-7.26,2.12-10.96,2.7l-.5-3.24c3.51-.55,7.01-1.41,10.41-2.56,10.29-3.49,19.48-9.63,26.59-17.76l2.47,2.16c-7.49,8.56-17.17,15.03-28,18.71Z"></path><path class="cls-2" d="m153.13,115.99l-3.05-1.19c5.25-13.49,5.57-28.47.91-42.2l-.04-.13,3.1-1.05.04.12c4.91,14.46,4.57,30.25-.96,44.45Z"></path><path class="cls-2" d="m140.61,53.7c-9.08-11.26-21.91-19.01-36.14-21.83l.64-3.22c14.99,2.97,28.5,11.13,38.06,22.99l-2.55,2.06Z"></path><path class="cls-2" d="m79.91,156.22c-14.98-2.98-28.49-11.16-38.04-23.03l2.55-2.05c9.06,11.27,21.89,19.04,36.12,21.87l-.64,3.21Z"></path><path class="cls-2" d="m34.11,112.36l-3.1,1.05-.02-.05c-4.9-14.45-4.57-30.21.93-44.39l3.06,1.19c-5.22,13.47-5.54,28.43-.89,42.13l.02.07Z"></path><path class="cls-2" d="m46.07,51.81l-2.47-2.15c7.5-8.59,17.19-15.08,28.05-18.76,3.55-1.21,7.21-2.11,10.89-2.69l.51,3.24c-3.49.55-6.97,1.41-10.34,2.55-10.31,3.5-19.52,9.66-26.63,17.81Z"></path><path id="Caminho_144" d="m116.92,96.82v-2.86h-11.44v-23.02h-25.88v23.02h-11.44v2.86h20.09v2.86h-20.09v14.29h48.75v-14.29h-20.09v-2.86h20.09Zm-25.81-23.02h2.86v2.86h-2.86v-2.86Zm-8.65,0h5.8v5.72h8.57v-5.72h5.8v20.17h-20.17v-20.17Zm31.6,37.32h-43.04v-8.58h43.04v8.58Zm-20.09-11.43h-2.86v-2.86h2.86v2.86Z"></path><rect id="Ret&#xE2;ngulo_35" x="85.39" y="105.4" width="14.29" height="2.86"></rect><rect id="Ret&#xE2;ngulo_36" x="88.25" y="88.24" width="8.58" height="2.86"></rect></g></svg>