<svg xmlns="http://www.w3.org/2000/svg" xmlns:xlink="http://www.w3.org/1999/xlink" id="Camada_2" viewBox="0 0 184 185"><defs><style>.cls-1{fill:#fff;filter:url(#drop-shadow-1);}.cls-2{fill:#0074ff;}</style><filter id="drop-shadow-1" filterUnits="userSpaceOnUse"><feGaussianBlur stdDeviation="10"></feGaussianBlur></filter></defs><g id="Camada_7"><circle class="cls-1" cx="91.82" cy="92.29" r="61.73"></circle><path class="cls-2" d="m112.72,153.85c-3.57,1.21-7.26,2.12-10.96,2.7l-.5-3.24c3.51-.55,7.01-1.41,10.41-2.56,10.29-3.49,19.48-9.63,26.59-17.76l2.47,2.16c-7.49,8.56-17.17,15.03-28,18.71Z"></path><path class="cls-2" d="m152.41,115.83l-3.05-1.19c5.25-13.49,5.57-28.47.91-42.2l-.04-.13,3.1-1.05.04.12c4.91,14.46,4.57,30.25-.96,44.45Z"></path><path class="cls-2" d="m139.89,53.55c-9.08-11.26-21.91-19.01-36.14-21.83l.64-3.22c14.99,2.97,28.5,11.13,38.06,22.99l-2.55,2.06Z"></path><path class="cls-2" d="m79.19,156.07c-14.98-2.98-28.49-11.16-38.04-23.03l2.55-2.05c9.06,11.27,21.89,19.04,36.12,21.87l-.64,3.21Z"></path><path class="cls-2" d="m33.39,112.2l-3.1,1.05-.02-.05c-4.9-14.45-4.57-30.21.93-44.39l3.06,1.19c-5.22,13.47-5.54,28.43-.89,42.13l.02.07Z"></path><path class="cls-2" d="m45.35,51.65l-2.47-2.15c7.5-8.59,17.19-15.08,28.05-18.76,3.55-1.21,7.21-2.11,10.89-2.69l.51,3.24c-3.49.55-6.97,1.41-10.34,2.55-10.31,3.5-19.52,9.66-26.63,17.81Z"></path><path id="_008-light-bulb" d="m108.64,84.74c0-9.29-7.53-16.82-16.82-16.82,0,0,0,0,0,0h-.03c-9.29.02-16.81,7.56-16.79,16.85,0,3.86,1.34,7.6,3.78,10.59,1.64,2.01,2.67,4.44,2.96,7.02h-2.78v2.86h2.86v4.29c0,3.94,3.2,7.14,7.15,7.15h5.72c3.94,0,7.14-3.2,7.15-7.15v-4.29h2.86v-2.86h-2.78c.29-2.57,1.32-5.01,2.96-7.01,2.44-3,3.78-6.75,3.78-10.62Zm-13.96,29.07h-5.72c-1.82,0-3.44-1.15-4.04-2.86h13.81c-.61,1.71-2.23,2.86-4.04,2.86h0Zm4.29-5.72h-14.3v-2.86h14.3v2.86Zm-5.75-19.14v13.42h-2.86v-13.42h2.86Zm5.81,13.42h-2.96v-13.42h2.92v-2.85h-14.35v2.86h2.86v13.42h-2.89c-.3-3.24-1.56-6.31-3.62-8.82-4.87-5.98-3.96-14.78,2.02-19.64,2.48-2.02,5.58-3.13,8.78-3.13h.03c7.71,0,13.96,6.25,13.97,13.96,0,3.21-1.11,6.33-3.14,8.82-2.05,2.51-3.31,5.58-3.61,8.82Z"></path></g></svg>